<mxfile host="65bd71144e">
    <diagram id="xpuFdGYbAsa0rW4rm5e2" name="Page-1">
        <mxGraphModel dx="979" dy="787" grid="1" gridSize="10" guides="1" tooltips="1" connect="1" arrows="1" fold="1" page="1" pageScale="1" pageWidth="850" pageHeight="1100" math="0" shadow="0">
            <root>
                <mxCell id="0"/>
                <mxCell id="1" parent="0"/>
                <mxCell id="7" style="edgeStyle=none;html=1;" edge="1" parent="1" source="3" target="6">
                    <mxGeometry relative="1" as="geometry"/>
                </mxCell>
                <mxCell id="8" style="edgeStyle=none;html=1;" edge="1" parent="1" source="3" target="5">
                    <mxGeometry relative="1" as="geometry"/>
                </mxCell>
                <mxCell id="3" value="lowLevel" style="html=1;whiteSpace=wrap;" vertex="1" parent="1">
                    <mxGeometry x="400" y="440" width="120" height="40" as="geometry"/>
                </mxCell>
                <mxCell id="10" style="edgeStyle=none;html=1;" edge="1" parent="1" source="5" target="9">
                    <mxGeometry relative="1" as="geometry"/>
                </mxCell>
                <mxCell id="5" value="Inverse-Kinematcs" style="html=1;whiteSpace=wrap;" vertex="1" parent="1">
                    <mxGeometry x="280" y="360" width="120" height="40" as="geometry"/>
                </mxCell>
                <mxCell id="11" style="edgeStyle=none;html=1;" edge="1" parent="1" source="6" target="9">
                    <mxGeometry relative="1" as="geometry"/>
                </mxCell>
                <mxCell id="6" value="Angle Control" style="html=1;whiteSpace=wrap;" vertex="1" parent="1">
                    <mxGeometry x="520" y="360" width="120" height="40" as="geometry"/>
                </mxCell>
                <mxCell id="14" style="edgeStyle=none;html=1;" edge="1" parent="1" source="9" target="12">
                    <mxGeometry relative="1" as="geometry"/>
                </mxCell>
                <mxCell id="9" value="API" style="html=1;whiteSpace=wrap;" vertex="1" parent="1">
                    <mxGeometry x="400" y="280" width="120" height="40" as="geometry"/>
                </mxCell>
                <mxCell id="12" value="GUI" style="html=1;whiteSpace=wrap;" vertex="1" parent="1">
                    <mxGeometry x="400" y="190" width="120" height="40" as="geometry"/>
                </mxCell>
                <mxCell id="16" value="Config" style="html=1;whiteSpace=wrap;" vertex="1" parent="1">
                    <mxGeometry x="680" y="360" width="120" height="40" as="geometry"/>
                </mxCell>
            </root>
        </mxGraphModel>
    </diagram>
</mxfile>